<svg width="64" height="64" viewBox="0 0 64 64" fill="none" xmlns="http://www.w3.org/2000/svg">
<path fill-rule="evenodd" clip-rule="evenodd" d="M40.7015 13.3639C42.073 13.4209 43.1869 14.4767 43.1869 15.8494C43.1869 17.1123 42.1224 17.6356 40.996 18.1892C40.8981 18.2374 40.7997 18.2857 40.7015 18.3348C40.6014 18.3849 40.4972 18.4358 40.3902 18.4882C39.1681 19.0863 37.5787 19.864 37.5947 21.4416C37.6079 22.7539 38.3989 23.4638 39.4588 24.2377C39.9283 24.5806 40.4654 24.5885 40.9807 24.5961C41.5882 24.6049 42.1653 24.6135 42.5656 25.1698C43.2741 26.1547 43.3423 27.3445 42.5656 28.2766C41.6335 29.3951 39.8717 29.3013 38.8374 28.2766C38.4105 27.8536 38.4291 27.3549 38.4484 26.8352C38.4651 26.3876 38.4824 25.9243 38.2161 25.4804C37.7746 24.7448 37.43 24.3107 36.6627 23.927C35.5775 23.3845 34.6411 23.3845 33.5559 23.927C32.7885 24.3107 32.4172 24.7295 32.0025 25.4804C31.7231 25.9864 31.8181 26.5036 31.9104 27.0059C32.0128 27.5634 32.1118 28.1025 31.6918 28.5872C31.0868 29.2856 30.441 29.5193 29.517 29.5193C28.593 29.5193 27.9773 29.2584 27.3423 28.5872C26.8909 28.1102 26.9247 27.5622 26.9597 26.9948C26.9906 26.4933 27.0225 25.9766 26.7209 25.4804C26.2753 24.7474 25.9295 24.3212 25.1675 23.927C24.7404 23.7061 24.3374 23.7455 23.9373 23.7845C23.5235 23.8248 23.1129 23.8649 22.6821 23.6164C21.778 23.0949 21.193 22.4834 21.1287 21.4416C21.0582 20.2992 21.6951 19.5358 22.6821 18.9562C23.1121 18.7037 23.5237 18.7447 23.9391 18.786C24.3386 18.8257 24.7416 18.8658 25.1675 18.6455C25.9295 18.2514 26.3896 17.8835 26.7209 17.0921C27.1452 16.0787 26.8805 15.2889 26.4102 14.296C26.0777 13.5939 25.8383 13.1346 25.1675 12.7426C24.652 12.4413 24.1428 12.5624 23.6349 12.6833C23.2139 12.7835 22.7937 12.8834 22.3714 12.7426C21.4394 12.4319 20.7475 11.3996 20.818 10.2571C20.8823 9.21543 21.4394 8.39306 22.3714 8.08238C22.7951 7.94115 23.1704 7.96221 23.5341 7.98259C23.9706 8.00701 24.3903 8.03056 24.8568 7.7717C25.6855 7.31202 26.0838 6.79722 26.4102 5.90765C26.5688 5.47547 26.4686 5.08371 26.3709 4.70135C26.2625 4.27753 26.1571 3.86524 26.4102 3.42221C26.9486 2.48 27.8131 2.10377 28.8957 2.17949C30.1823 2.26949 31.2575 3.07045 31.3811 4.35425C31.4908 5.49359 30.8263 6.28032 29.8277 6.83966C29.4463 7.05335 29.0882 7.0303 28.7271 7.00706C28.3796 6.98469 28.0293 6.9622 27.6529 7.15034C26.8856 7.53403 26.4668 7.92841 26.0995 8.70374C25.6321 9.69058 25.7016 10.483 26.0995 11.4999C26.4448 12.3823 26.8397 12.8775 27.6529 13.3639C28.1686 13.6724 28.6845 13.5874 29.1964 13.5031C29.7234 13.4162 30.2461 13.3301 30.7597 13.6746C31.4049 14.1074 31.7339 14.499 32.0025 15.228C32.1457 15.6169 32.0752 15.9222 32.0015 16.2411C31.9242 16.5758 31.8434 16.9256 32.0025 17.4028C32.2737 18.2167 32.7885 18.5725 33.5559 18.9562C34.6411 19.4988 35.5953 19.5331 36.6627 18.9562C37.4963 18.5056 37.9112 17.9893 38.2161 17.0921C38.3478 16.7044 38.2712 16.3649 38.1957 16.0304C38.1148 15.6714 38.0351 15.3181 38.2161 14.9173C38.6872 13.8742 39.5579 13.3165 40.7015 13.3639ZM29.2063 18.0241C31.0916 17.9343 32.7136 19.5563 32.6238 21.4416C32.538 23.2432 31.008 24.6342 29.2063 24.5484C27.4924 24.4668 26.1811 23.1555 26.0995 21.4416C26.0137 19.64 27.4047 18.1099 29.2063 18.0241Z" fill="white"/>
<path d="M31.7597 40.5654H28.2488L27.5813 42.5679H25.452L29.0698 32.8494H30.9253L34.5631 42.5679H32.4338L31.7597 40.5654ZM28.7894 38.9435H31.2191L29.9975 35.3057L28.7894 38.9435ZM37.6001 42.5679H35.5977V32.8494H37.6001V42.5679ZM28.2688 58.7232H26.2664V54.5581H22.3616V58.7232H20.3592V49.0047H22.3616V52.9428H26.2664V49.0047H28.2688V58.7232ZM34.2226 57.9889C33.7466 58.5674 33.088 58.8567 32.247 58.8567C31.4727 58.8567 30.8809 58.6342 30.4714 58.1892C30.0665 57.7442 29.8596 57.0923 29.8507 56.2335V51.5011H31.7797V56.1667C31.7797 56.9188 32.1223 57.2948 32.8076 57.2948C33.4617 57.2948 33.9112 57.0678 34.1559 56.6139V51.5011H36.0916V58.7232H34.2761L34.2226 57.9889ZM44.0546 55.1789C44.0546 56.3358 43.8076 57.2391 43.3137 57.8888C42.8198 58.5341 42.1301 58.8567 41.2445 58.8567C40.4613 58.8567 39.8361 58.5563 39.3689 57.9556L39.2821 58.7232H37.5467V48.4708H39.4757V52.1485C39.9207 51.6279 40.5058 51.3676 41.2311 51.3676C42.1122 51.3676 42.8019 51.6925 43.3003 52.3421C43.8032 52.9873 44.0546 53.8973 44.0546 55.0721V55.1789ZM42.1256 55.0387C42.1256 54.3089 42.0099 53.7772 41.7785 53.4434C41.5471 53.1052 41.2023 52.9362 40.7439 52.9362C40.1298 52.9362 39.7071 53.1876 39.4757 53.6904V56.5405C39.7115 57.0478 40.1387 57.3015 40.7573 57.3015C41.3803 57.3015 41.7896 56.9944 41.9854 56.3804C42.0789 56.0866 42.1256 55.6395 42.1256 55.0387Z" fill="white"/>
</svg>
