<svg width="952" height="609" viewBox="0 0 952 609" fill="none" xmlns="http://www.w3.org/2000/svg">
<path d="M46.6335 561.437C47.0319 576.89 49.5231 592.209 54.0335 606.94C54.1335 607.282 54.2445 607.619 54.3525 607.961H81.9655C81.9365 607.654 81.9065 607.312 81.8775 606.94C80.0365 584.943 90.5545 452.661 103.247 429.766C102.135 431.623 44.4925 491.543 46.6335 561.437Z" fill="#F1F1F1"/>
<path d="M48.7056 606.94C48.9366 607.282 49.1766 607.624 49.4226 607.961H70.1386C69.9816 607.67 69.7996 607.328 69.5886 606.94C66.1666 600.522 56.0376 581.331 46.6356 561.437C36.5356 540.057 27.2616 517.867 28.0426 509.836C27.8006 511.646 20.8086 566.866 48.7056 606.94Z" fill="#F1F1F1"/>
<path d="M651.291 125.31C652.082 127.341 653.291 129.168 654.834 130.661C656.377 132.154 658.216 133.278 660.223 133.952C662.229 134.627 664.353 134.836 666.445 134.565C668.537 134.294 670.547 133.55 672.333 132.385L712.312 165.713L714.787 138.154L676.442 110.73C674.36 107.742 671.295 105.652 667.829 104.856C664.362 104.06 660.736 104.613 657.636 106.41C654.535 108.207 652.177 111.124 651.008 114.607C649.839 118.09 649.939 121.898 651.291 125.31Z" fill="#9F616A"/>
<path d="M713.205 135.566L698.283 124.609L681.358 144.932L701.046 157.058L713.205 135.566Z" fill="#7899D4"/>
<path d="M709.937 128.135L760.224 148.243L808.633 115.301C813.636 111.897 819.66 110.501 825.58 111.374C831.501 112.247 836.913 115.33 840.807 120.046C844.701 124.763 846.81 130.791 846.74 137.006C846.67 143.22 844.427 149.195 840.428 153.816L839.995 154.316L765.541 195.801L684.215 157.19L709.937 128.135Z" fill="#3F3D56"/>
<path d="M695.76 605.882H171.76L190.76 220.321H272.76L348.374 275.401H714.76L695.76 605.882Z" fill="#E5E5E5"/>
<path d="M567.489 488.305L264.624 358.681C263.565 358.226 262.723 357.354 262.283 356.255C261.842 355.156 261.839 353.92 262.274 352.818L399.508 6.5081C399.945 5.40772 400.785 4.53262 401.843 4.07475C402.9 3.61689 404.089 3.61366 405.149 4.06578L708.014 133.689C709.073 134.144 709.915 135.017 710.355 136.116C710.796 137.215 710.799 138.45 710.364 139.552L573.13 485.862C572.693 486.963 571.853 487.838 570.796 488.296C569.738 488.754 568.549 488.757 567.489 488.305Z" fill="white"/>
<path d="M567.489 488.305L264.624 358.681C263.565 358.226 262.723 357.354 262.283 356.255C261.842 355.156 261.839 353.92 262.274 352.818L399.508 6.5081C399.945 5.40772 400.785 4.53262 401.843 4.07475C402.9 3.61689 404.089 3.61366 405.149 4.06578L708.014 133.689C709.073 134.144 709.915 135.017 710.355 136.116C710.796 137.215 710.799 138.45 710.364 139.552L573.13 485.862C572.693 486.963 571.853 487.838 570.796 488.296C569.738 488.754 568.549 488.757 567.489 488.305ZM404.491 5.72674C403.855 5.45543 403.141 5.45735 402.507 5.73207C401.872 6.00679 401.369 6.53188 401.106 7.19213L263.872 353.503C263.611 354.163 263.613 354.905 263.877 355.564C264.142 356.224 264.647 356.747 265.282 357.02L568.147 486.644C568.783 486.915 569.497 486.913 570.131 486.638C570.766 486.364 571.269 485.839 571.532 485.178L708.766 138.868C709.027 138.207 709.025 137.466 708.761 136.806C708.496 136.147 707.991 135.623 707.356 135.35L404.491 5.72674Z" fill="#3F3D56"/>
<path d="M490.031 175.494L414.914 143.345C413.855 142.89 413.013 142.018 412.573 140.919C412.132 139.82 412.129 138.584 412.564 137.483L443.499 59.4174C443.937 58.317 444.776 57.4419 445.834 56.9841C446.892 56.5262 448.081 56.523 449.14 56.9751L524.257 89.1245C525.316 89.5791 526.158 90.4517 526.599 91.5507C527.039 92.6498 527.042 93.8855 526.607 94.987L495.672 173.052C495.235 174.152 494.395 175.028 493.338 175.485C492.28 175.943 491.091 175.947 490.031 175.494ZM448.482 58.636C447.846 58.3647 447.133 58.3666 446.498 58.6414C445.864 58.9161 445.36 59.4412 445.098 60.1014L414.162 138.167C413.901 138.827 413.903 139.569 414.168 140.228C414.432 140.888 414.937 141.411 415.572 141.684L490.689 173.833C491.325 174.105 492.039 174.103 492.673 173.828C493.308 173.553 493.812 173.028 494.074 172.368L525.009 94.3029C525.27 93.6421 525.268 92.9006 525.004 92.2412C524.74 91.5817 524.235 91.0582 523.599 90.7854L448.482 58.636Z" fill="#F2F2F2"/>
<path d="M464.67 175.811L389.554 143.661C388.601 143.252 387.843 142.467 387.446 141.478C387.05 140.488 387.047 139.376 387.438 138.385L418.374 60.3197C418.767 59.3293 419.523 58.5417 420.475 58.1296C421.427 57.7176 422.497 57.7147 423.451 58.1216L498.568 90.271C499.521 90.6802 500.278 91.4655 500.675 92.4546C501.071 93.4438 501.074 94.556 500.683 95.5473L469.747 173.612C469.354 174.603 468.598 175.39 467.646 175.803C466.695 176.215 465.624 176.217 464.67 175.811Z" fill="#7899D4"/>
<path d="M609.355 282.416L374.415 181.863C373.943 181.661 373.513 181.364 373.152 180.99C372.79 180.615 372.502 180.17 372.306 179.68C372.11 179.19 372.008 178.665 372.007 178.134C372.006 177.604 372.105 177.078 372.3 176.587C372.494 176.096 372.78 175.65 373.14 175.274C373.501 174.898 373.929 174.599 374.4 174.395C374.872 174.191 375.377 174.086 375.888 174.084C376.399 174.083 376.905 174.187 377.377 174.389L612.317 274.941C613.271 275.35 614.029 276.135 614.426 277.124C614.823 278.114 614.825 279.226 614.432 280.218C614.039 281.209 613.284 281.997 612.332 282.409C611.38 282.822 610.309 282.824 609.355 282.416V282.416Z" fill="#CCCCCC"/>
<path d="M542.416 283.877L364.213 207.608C363.741 207.406 363.311 207.109 362.95 206.735C362.588 206.36 362.3 205.915 362.104 205.425C361.908 204.935 361.806 204.41 361.805 203.879C361.804 203.348 361.903 202.823 362.098 202.332C362.292 201.841 362.578 201.395 362.938 201.019C363.299 200.643 363.727 200.344 364.198 200.14C364.67 199.936 365.175 199.83 365.686 199.829C366.197 199.828 366.703 199.932 367.175 200.134L545.378 276.403C546.331 276.811 547.09 277.597 547.487 278.586C547.883 279.576 547.886 280.688 547.493 281.679C547.1 282.671 546.344 283.459 545.392 283.871C544.44 284.283 543.37 284.286 542.416 283.877Z" fill="#CCCCCC"/>
<path d="M646.073 187.399L542.188 142.937C541.716 142.735 541.287 142.438 540.925 142.063C540.563 141.689 540.276 141.244 540.079 140.754C539.883 140.264 539.781 139.739 539.78 139.208C539.779 138.677 539.879 138.151 540.073 137.661C540.268 137.17 540.553 136.724 540.914 136.348C541.274 135.972 541.702 135.673 542.173 135.469C542.645 135.265 543.15 135.159 543.661 135.158C544.172 135.157 544.678 135.26 545.15 135.463L649.035 179.925C649.989 180.333 650.747 181.118 651.144 182.107C651.541 183.097 651.543 184.21 651.15 185.201C650.757 186.192 650.002 186.98 649.05 187.393C648.098 187.805 647.027 187.807 646.073 187.399Z" fill="#CCCCCC"/>
<path d="M609.945 202.047L531.986 168.682C531.032 168.274 530.274 167.488 529.877 166.499C529.48 165.509 529.478 164.397 529.871 163.406C530.264 162.414 531.019 161.626 531.971 161.214C532.924 160.802 533.994 160.799 534.948 161.207L612.907 194.573C613.861 194.981 614.619 195.767 615.016 196.756C615.412 197.746 615.415 198.858 615.022 199.849C614.629 200.841 613.874 201.629 612.921 202.041C611.969 202.453 610.899 202.456 609.945 202.047V202.047Z" fill="#CCCCCC"/>
<path d="M588.951 333.905L354.011 233.353C353.539 233.151 353.109 232.854 352.748 232.48C352.386 232.105 352.098 231.66 351.902 231.17C351.706 230.68 351.604 230.155 351.603 229.624C351.602 229.093 351.701 228.568 351.896 228.077C352.09 227.586 352.376 227.14 352.736 226.764C353.097 226.388 353.525 226.089 353.996 225.885C354.468 225.681 354.973 225.575 355.484 225.574C355.995 225.573 356.501 225.677 356.973 225.879L591.913 326.431C592.867 326.839 593.625 327.624 594.022 328.614C594.419 329.603 594.421 330.716 594.028 331.707C593.635 332.698 592.88 333.487 591.928 333.899C590.975 334.311 589.905 334.314 588.951 333.905V333.905Z" fill="#CCCCCC"/>
<path d="M522.012 335.367L343.809 259.098C343.337 258.896 342.907 258.599 342.546 258.224C342.184 257.85 341.896 257.405 341.7 256.915C341.504 256.425 341.402 255.9 341.401 255.369C341.4 254.838 341.499 254.312 341.694 253.822C341.888 253.331 342.174 252.885 342.534 252.509C342.895 252.133 343.323 251.834 343.794 251.63C344.266 251.426 344.771 251.32 345.282 251.319C345.793 251.318 346.299 251.421 346.771 251.624L524.974 327.893C525.446 328.095 525.875 328.392 526.237 328.766C526.599 329.141 526.886 329.586 527.083 330.076C527.279 330.566 527.381 331.091 527.382 331.622C527.383 332.153 527.283 332.678 527.089 333.169C526.894 333.66 526.609 334.106 526.248 334.482C525.888 334.858 525.46 335.157 524.988 335.361C524.517 335.565 524.011 335.671 523.501 335.672C522.99 335.673 522.484 335.569 522.012 335.367Z" fill="#CCCCCC"/>
<path d="M568.547 385.395L333.607 284.843C332.653 284.435 331.895 283.649 331.498 282.66C331.101 281.67 331.099 280.558 331.492 279.567C331.885 278.575 332.64 277.787 333.592 277.375C334.544 276.963 335.615 276.96 336.569 277.368L571.509 377.921C572.463 378.329 573.221 379.114 573.618 380.104C574.014 381.093 574.017 382.206 573.624 383.197C573.231 384.188 572.476 384.977 571.523 385.389C570.571 385.801 569.501 385.803 568.547 385.395Z" fill="#CCCCCC"/>
<path d="M558.345 411.14L323.405 310.588C322.451 310.179 321.692 309.394 321.296 308.405C320.899 307.415 320.897 306.303 321.29 305.311C321.683 304.32 322.438 303.532 323.39 303.12C324.342 302.707 325.413 302.705 326.367 303.113L561.307 403.666C561.779 403.868 562.208 404.165 562.57 404.539C562.932 404.914 563.219 405.359 563.416 405.849C563.612 406.339 563.714 406.864 563.715 407.395C563.716 407.925 563.616 408.451 563.422 408.942C563.227 409.433 562.942 409.879 562.581 410.255C562.221 410.631 561.793 410.93 561.321 411.134C560.85 411.338 560.344 411.443 559.834 411.445C559.323 411.446 558.817 411.342 558.345 411.14Z" fill="#CCCCCC"/>
<path d="M443.73 409.228C448.432 409.486 453.147 409.337 457.825 408.781C462.037 408.269 466.425 407.564 470.118 405.263C471.715 404.316 473.074 402.991 474.086 401.396C475.097 399.8 475.732 397.979 475.939 396.08C476.102 394.275 475.708 392.462 474.813 390.904C473.919 389.346 472.571 388.125 470.964 387.417C469.333 386.703 467.548 386.461 465.796 386.716C464.044 386.971 462.391 387.714 461.013 388.866C459.539 390.195 458.374 391.853 457.604 393.716C456.833 395.578 456.477 397.598 456.563 399.624C456.757 407.942 463.09 416.157 470.122 419.618C478.043 423.515 488.86 420.203 490.888 410.605C491.31 408.609 488.694 407.915 487.6 409.198C486.107 410.909 485.299 413.148 485.341 415.457C485.382 417.766 486.271 419.972 487.825 421.624C489.378 423.275 491.48 424.248 493.701 424.343C495.921 424.438 498.093 423.648 499.773 422.135L496.828 420.875C497.684 424.601 499.469 428.028 502.003 430.81C504.538 433.591 507.732 435.631 511.266 436.722C513.009 437.265 514.817 437.551 516.638 437.573C518.849 437.579 521.122 438.733 523.237 439.449L538.481 444.61C540.724 445.37 542.146 441.832 539.886 441.067L526.08 436.392C523.779 435.613 521.484 434.813 519.176 434.055C517.527 433.513 515.721 433.807 514 433.488C510.78 432.855 507.799 431.283 505.406 428.956C503.012 426.629 501.304 423.643 500.481 420.347C500.431 420.018 500.301 419.709 500.102 419.449C499.904 419.188 499.645 418.985 499.349 418.858C499.054 418.732 498.732 418.686 498.414 418.726C498.097 418.766 497.795 418.89 497.537 419.086C496.573 420.04 495.285 420.56 493.953 420.531C492.622 420.503 491.356 419.929 490.43 418.935C489.504 417.941 488.993 416.606 489.009 415.223C489.025 413.839 489.566 412.518 490.515 411.547L487.227 410.14C485.919 416.332 478.651 418.655 473.414 416.865C467.556 414.863 462.522 409.036 460.775 402.934C460.307 401.467 460.136 399.917 460.271 398.378C460.407 396.84 460.846 395.348 461.561 393.994C462.199 392.759 463.193 391.763 464.404 391.147C465.615 390.53 466.982 390.324 468.312 390.558C469.499 390.732 470.575 391.379 471.312 392.362C472.049 393.345 472.39 394.587 472.262 395.827C472.067 397.221 471.545 398.544 470.742 399.679C469.939 400.814 468.879 401.727 467.657 402.337C464.361 404.176 460.413 404.633 456.751 405.051C452.576 405.523 448.372 405.647 444.178 405.423C441.824 405.299 441.351 409.103 443.73 409.228L443.73 409.228Z" fill="#7899D4"/>
<path d="M695.76 301.382V605.882H171.76V246.302H253.76L329.37 301.382H695.76Z" fill="white"/>
<path d="M417.76 548.724H203.76V566.391H417.76V548.724Z" fill="#7899D4"/>
<path d="M310.76 514.428H203.76V532.096H310.76V514.428Z" fill="#7899D4"/>
<path d="M696.76 606.921H170.76V245.263H254.075L329.69 300.343H696.76V606.921ZM172.76 604.843H694.76V302.422H329.058L253.444 247.341H172.76V604.843Z" fill="#3F3D56"/>
<path d="M909.144 570.17L891.414 576.754L858.535 508.814L884.704 499.095L909.144 570.17Z" fill="#9F616A"/>
<path d="M862.639 607.585L862.38 606.833C860.278 600.699 860.604 593.95 863.285 588.065C865.965 582.18 870.783 577.64 876.68 575.442L911.598 562.473L919.81 586.351L862.639 607.585Z" fill="#2F2E41"/>
<path d="M793.848 588.394H775.019L766.062 512.917L793.851 512.918L793.848 588.394Z" fill="#9F616A"/>
<path d="M798.65 607.362L737.938 607.36V606.562C737.938 603.337 738.549 600.143 739.736 597.164C740.924 594.184 742.665 591.477 744.859 589.197C747.053 586.916 749.658 585.107 752.526 583.873C755.393 582.639 758.465 582.004 761.569 582.004H761.57L798.651 582.006L798.65 607.362Z" fill="#2F2E41"/>
<path d="M836.759 106.197L828.57 89.3816C828.57 89.3816 798.065 97.3244 795.292 115.698L836.759 106.197Z" fill="#7899D4"/>
<path d="M870.547 298.47L848.278 427.617L907.407 536.29L872.083 550.655L812.186 445.312L804.507 416.582L799.899 566.615L768.042 565.61L753.435 425.515L776.862 295.279L870.547 298.47Z" fill="#2F2E41"/>
<path d="M865.938 240.124L865.168 164.392C865.168 132.296 844.842 108.639 842.025 106.451C840.699 102.054 838.32 99.0147 834.957 97.4242C828.181 94.2328 819.895 98.0624 819.544 98.2347L794.685 107.92L794.568 108.275C794.305 109.085 769.222 194.624 762.924 216.092C762.027 219.172 761.51 220.935 761.51 220.935C761.51 220.935 761.608 225.899 761.783 233.619C762.339 260.163 763.655 319.29 764.181 321.772C764.181 321.772 810.098 329.006 828.279 329.006C860.986 329.006 881.761 322.501 882.229 322.39L882.979 322.228L865.938 240.124Z" fill="#3F3D56"/>
<path d="M819.257 79.8068C835.544 70.5543 841.529 49.3325 832.626 32.4065C823.723 15.4806 803.303 9.26004 787.016 18.5125C770.73 27.765 764.744 48.9868 773.647 65.9127C782.55 82.8387 802.97 89.0593 819.257 79.8068Z" fill="#9F616A"/>
<path opacity="0.2" d="M806.861 224.096L761.783 233.619C761.608 225.899 761.51 220.935 761.51 220.935C761.51 220.935 762.027 219.172 762.924 216.092L806.861 224.096Z" fill="black"/>
<path d="M673.369 214.113C674.97 215.54 676.852 216.584 678.883 217.172C680.914 217.761 683.045 217.88 685.124 217.52C687.204 217.16 689.183 216.331 690.921 215.091C692.659 213.85 694.115 212.229 695.185 210.341L745.433 220.831L735.437 195.176L689.253 189.147C686.081 187.489 682.435 187.098 679.005 188.048C675.574 188.997 672.598 191.221 670.641 194.299C668.683 197.376 667.879 201.093 668.382 204.745C668.885 208.397 670.66 211.73 673.369 214.113Z" fill="#9F616A"/>
<path d="M732.887 193.634L714.788 191.035L708.751 217.17L731.599 218.529L732.887 193.634Z" fill="#7899D4"/>
<path d="M726.697 188.597L780.25 182.423L808.662 130.036C811.598 124.622 816.33 120.504 821.973 118.45C827.617 116.396 833.788 116.547 839.332 118.874C844.877 121.202 849.417 125.547 852.105 131.099C854.792 136.651 855.444 143.029 853.938 149.043L853.774 149.694L806.014 222.113L716.712 226.69L726.697 188.597Z" fill="#3F3D56"/>
<path d="M831.763 79.4846L803.868 80.5251C802.168 80.5885 797.553 61.5179 796.949 57.5617C796.472 54.9861 795.109 52.6792 793.114 51.0718C791.12 49.4644 788.63 48.6665 786.111 48.827C784.023 49.032 778.758 44.9778 773.324 40.1771C763.009 31.063 763.545 13.9454 774.877 6.24399C775.187 6.0335 775.491 5.84131 775.789 5.6674C782.937 1.50924 791.3 0.112884 799.491 0.00640205C806.917 -0.0901234 814.553 0.881202 821.095 4.53391C832.824 11.0824 839.066 25.3929 839.614 39.2176C840.162 53.0423 835.897 66.5603 831.058 79.4504" fill="#2F2E41"/>
<path d="M951 609H1C0.734784 609 0.480429 608.89 0.292892 608.696C0.105356 608.501 0 608.236 0 607.961C0 607.685 0.105356 607.421 0.292892 607.226C0.480429 607.031 0.734784 606.922 1 606.922H951C951.265 606.922 951.52 607.031 951.707 607.226C951.895 607.421 952 607.685 952 607.961C952 608.236 951.895 608.501 951.707 608.696C951.52 608.89 951.265 609 951 609Z" fill="#CBCBCB"/>
</svg>
