<svg width="861" height="646" viewBox="0 0 861 646" fill="none" xmlns="http://www.w3.org/2000/svg">
<g clip-path="url(#clip0)">
<path d="M45.7793 645.438L44.8281 643.68C57.5816 636.782 73.4539 628.199 81.7441 614.112C89.9165 600.226 90.0999 581.37 82.2227 564.901C75.5191 550.886 63.2048 538.329 46.6116 528.588C43.3386 526.667 39.9028 524.846 36.5801 523.085C28.5486 518.828 20.2437 514.427 13.3958 508.182C3.96411 499.581 -3.17211 485.147 2.14677 472.291C3.89602 468.187 6.7608 464.656 10.4158 462.099C14.0709 459.542 18.3697 458.061 22.8243 457.824L22.937 459.821C18.8562 460.037 14.9177 461.393 11.5685 463.735C8.21932 466.077 5.5936 469.31 3.98929 473.069C-0.953336 485.016 5.82791 498.574 14.7434 506.704C21.4041 512.778 29.5953 517.119 37.5166 521.318C40.8582 523.089 44.3138 524.92 47.6243 526.864C64.5628 536.807 77.1507 549.661 84.0269 564.038C92.1873 581.098 91.9732 600.675 83.4678 615.127C74.895 629.693 58.7512 638.424 45.7793 645.438Z" fill="#F1F1F1"/>
<path d="M35.5 468.365C45.165 468.365 53 464.559 53 459.865C53 455.17 45.165 451.365 35.5 451.365C25.835 451.365 18 455.17 18 459.865C18 464.559 25.835 468.365 35.5 468.365Z" fill="#F1F1F1"/>
<path d="M49.5 524.365C59.165 524.365 67 520.559 67 515.865C67 511.17 59.165 507.365 49.5 507.365C39.835 507.365 32 511.17 32 515.865C32 520.559 39.835 524.365 49.5 524.365Z" fill="#F1F1F1"/>
<path d="M17.5 533.365C27.165 533.365 35 529.559 35 524.865C35 520.17 27.165 516.365 17.5 516.365C7.83502 516.365 0 520.17 0 524.865C0 529.559 7.83502 533.365 17.5 533.365Z" fill="#F1F1F1"/>
<path d="M67.5 580.365C77.165 580.365 85 576.559 85 571.865C85 567.17 77.165 563.365 67.5 563.365C57.835 563.365 50 567.17 50 571.865C50 576.559 57.835 580.365 67.5 580.365Z" fill="#F1F1F1"/>
<path d="M102.5 580.365C112.165 580.365 120 576.559 120 571.865C120 567.17 112.165 563.365 102.5 563.365C92.835 563.365 85 567.17 85 571.865C85 576.559 92.835 580.365 102.5 580.365Z" fill="#F1F1F1"/>
<path d="M220.471 437.899H261.775C264.593 421.604 264.593 404.947 261.775 388.652H220.471C225.124 404.738 225.124 421.813 220.471 437.899Z" fill="#7899D4"/>
<path d="M93.008 633.403H104.35L109.746 589.655L93.006 589.656L93.008 633.403Z" fill="#FFB7B7"/>
<path d="M90.1151 629.7L112.452 629.699H112.452C116.228 629.699 119.848 631.199 122.517 633.868C125.187 636.538 126.687 640.158 126.687 643.933V644.396L90.1158 644.397L90.1151 629.7Z" fill="#2F2E41"/>
<path d="M229.273 633.03L240.286 630.32L235.073 586.55L218.818 590.551L229.273 633.03Z" fill="#FFB7B7"/>
<path d="M225.579 630.126L247.268 624.788L247.269 624.788C250.935 623.886 254.809 624.477 258.039 626.431C261.269 628.386 263.59 631.543 264.492 635.208L264.603 635.658L229.091 644.397L225.579 630.126Z" fill="#2F2E41"/>
<path d="M86.0332 622.972L88.3893 610.917C88.3893 610.917 92.7263 564.372 123.852 517.92L133.983 467.458C133.983 467.458 130.974 429.262 160.014 408.587L168.967 402.419L200.357 404.218L207.607 443.91L222.215 537.824C222.215 537.824 225.985 538.177 227.398 549.038C230.271 553.598 231.971 558.799 232.346 564.176C232.346 564.176 239.822 584.799 241.824 599.984L241.589 614.842L225.803 623.252L192.902 530.204L169.369 478.185C169.369 478.185 158.043 514.836 140.694 546.234C140.694 546.234 116.933 597.665 112.186 608.114L107.002 625.214L86.0332 622.972Z" fill="#2F2E41"/>
<path d="M190.987 322.552C203.378 322.552 213.423 312.507 213.423 300.115C213.423 287.724 203.378 277.679 190.987 277.679C178.596 277.679 168.55 287.724 168.55 300.115C168.55 312.507 178.596 322.552 190.987 322.552Z" fill="#FFB7B7"/>
<path d="M190.987 322.552C203.378 322.552 213.423 312.507 213.423 300.115C213.423 287.724 203.378 277.679 190.987 277.679C178.596 277.679 168.55 287.724 168.55 300.115C168.55 312.507 178.596 322.552 190.987 322.552Z" fill="#FFB8B8"/>
<path d="M160.08 408.826L167.487 390.325C162.254 373.376 162.574 355.197 168.402 338.442L169.819 337.275C182.164 327.109 192.999 328.96 203.054 341.396C204.673 343.418 206.567 345.203 208.68 346.701C213.114 349.812 220.15 366.715 210.861 376.624L203.429 419.973C204.212 443.907 186.844 434.895 160.08 408.826Z" fill="#3F3D56"/>
<path d="M225.848 434.381C225.697 433.19 225.288 432.046 224.648 431.03C224.007 430.014 223.152 429.151 222.142 428.501C221.132 427.851 219.992 427.431 218.802 427.269C217.612 427.108 216.401 427.209 215.255 427.567L203.23 413.152L192.688 418.323L209.955 438.44C210.683 440.327 212.077 441.881 213.874 442.807C215.671 443.734 217.745 443.97 219.704 443.47C221.663 442.969 223.371 441.768 224.503 440.093C225.635 438.418 226.114 436.386 225.848 434.381V434.381Z" fill="#FFB7B7"/>
<path d="M200.38 434.192L170.272 389.065L178.978 356.344C180.414 353.391 182.963 351.129 186.065 350.055C189.168 348.98 192.57 349.182 195.524 350.615C198.478 352.048 200.742 354.596 201.818 357.697C202.895 360.799 202.696 364.201 201.265 367.156L190.841 388.688L215.292 423.754L200.38 434.192Z" fill="#CCCCCC"/>
<path d="M150.994 295.201C162.882 295.201 172.519 285.564 172.519 273.676C172.519 261.788 162.882 252.151 150.994 252.151C139.106 252.151 129.469 261.788 129.469 273.676C129.469 285.564 139.106 295.201 150.994 295.201Z" fill="#2F2E41"/>
<path d="M132.427 291.5C135.213 293.514 138.441 294.831 141.84 295.341C145.24 295.852 148.712 295.541 151.967 294.434C155.221 293.328 158.163 291.458 160.547 288.981C162.931 286.504 164.687 283.492 165.668 280.198C165.296 283.15 164.317 285.994 162.791 288.548C161.266 291.103 159.227 293.314 156.804 295.041C154.381 296.768 151.626 297.974 148.713 298.583C145.8 299.192 142.793 299.19 139.881 298.578C136.969 297.966 134.216 296.756 131.795 295.026C129.373 293.296 127.337 291.083 125.815 288.527C124.292 285.97 123.316 283.125 122.948 280.173C122.581 277.22 122.829 274.223 123.678 271.371C123.196 275.202 123.754 279.093 125.293 282.635C126.833 286.177 129.297 289.239 132.427 291.5Z" fill="#2F2E41"/>
<path d="M217.375 291.524C213.617 284.797 212.179 281.987 207.334 277.896C203.049 274.278 197.779 273.215 193.528 276.643C188.5 274.471 182.904 273.978 177.573 275.239C172.243 276.499 167.46 279.446 163.937 283.641C160.415 287.835 158.339 293.055 158.018 298.523C157.698 303.992 159.15 309.418 162.159 313.996C165.168 318.573 169.573 322.058 174.721 323.932C179.868 325.807 185.482 325.971 190.73 324.4C195.978 322.83 200.58 319.608 203.851 315.214C207.122 310.82 208.889 305.488 208.888 300.01C208.885 299.048 208.827 298.087 208.715 297.132C212.41 296.613 213.68 292.043 217.375 291.524Z" fill="#2F2E41"/>
<path d="M325.331 646H20.3313C20.0661 646 19.8117 645.895 19.6242 645.707C19.4366 645.52 19.3313 645.265 19.3313 645C19.3313 644.735 19.4366 644.48 19.6242 644.293C19.8117 644.105 20.0661 644 20.3313 644H325.331C325.596 644 325.851 644.105 326.038 644.293C326.226 644.48 326.331 644.735 326.331 645C326.331 645.265 326.226 645.52 326.038 645.707C325.851 645.895 325.596 646 325.331 646Z" fill="#CBCBCB"/>
<path d="M790.438 80.6442H789.506V55.1113C789.506 53.1706 789.124 51.249 788.381 49.4561C787.639 47.6631 786.55 46.034 785.178 44.6618C783.805 43.2896 782.176 42.201 780.383 41.4584C778.591 40.7157 776.669 40.3335 774.728 40.3335H720.633C718.693 40.3335 716.771 40.7157 714.978 41.4584C713.185 42.201 711.556 43.2895 710.184 44.6618C708.812 46.034 707.723 47.6631 706.98 49.456C706.238 51.2489 705.855 53.1706 705.855 55.1112V195.187C705.855 199.106 707.412 202.865 710.184 205.636C712.955 208.408 716.714 209.965 720.633 209.965H774.728C778.648 209.965 782.406 208.408 785.178 205.636C787.949 202.865 789.506 199.106 789.506 195.187V98.8189H790.438V80.6442Z" fill="#E5E5E5"/>
<path d="M774.708 44.178H767.647C767.972 44.9741 768.096 45.8379 768.008 46.6932C767.92 47.5485 767.623 48.3691 767.144 49.0827C766.664 49.7963 766.016 50.3811 765.258 50.7854C764.499 51.1897 763.652 51.4012 762.792 51.4013H731.802C730.942 51.4012 730.096 51.1897 729.337 50.7854C728.578 50.3811 727.93 49.7964 727.451 49.0827C726.971 48.3691 726.674 47.5485 726.587 46.6932C726.499 45.8379 726.623 44.9741 726.948 44.178H720.353C717.426 44.178 714.619 45.3407 712.549 47.4103C710.479 49.4799 709.317 52.2869 709.317 55.2138V195.084C709.317 198.011 710.479 200.818 712.549 202.887C714.619 204.957 717.426 206.12 720.352 206.12H774.708C776.157 206.12 777.592 205.834 778.931 205.28C780.27 204.725 781.487 203.912 782.512 202.887C783.536 201.863 784.349 200.646 784.904 199.307C785.458 197.968 785.744 196.533 785.744 195.084V55.2139C785.744 53.7646 785.458 52.3296 784.904 50.9906C784.349 49.6517 783.536 48.4351 782.512 47.4103C781.487 46.3856 780.27 45.5727 778.931 45.0181C777.592 44.4634 776.157 44.178 774.708 44.178Z" fill="white"/>
<path d="M776.391 95.4603H742.69V98.1305H776.391V95.4603Z" fill="#E5E5E5"/>
<path d="M776.391 103.916H742.69V106.586H776.391V103.916Z" fill="#E5E5E5"/>
<path d="M776.391 112.371H742.69V115.041H776.391V112.371Z" fill="#E5E5E5"/>
<path d="M736.183 97.1105H719.903V113.391H736.183V97.1105Z" fill="#E5E5E5"/>
<path d="M731.035 154.838C734.948 154.838 738.12 151.666 738.12 147.753C738.12 143.84 734.948 140.668 731.035 140.668C727.122 140.668 723.95 143.84 723.95 147.753C723.95 151.666 727.122 154.838 731.035 154.838Z" fill="#7899D4"/>
<path d="M749.928 153.542C753.126 153.542 755.718 150.95 755.718 147.753C755.718 144.555 753.126 141.964 749.928 141.964C746.731 141.964 744.139 144.555 744.139 147.753C744.139 150.95 746.731 153.542 749.928 153.542Z" fill="#7899D4"/>
<path d="M768.821 151.275C770.766 151.275 772.343 149.698 772.343 147.753C772.343 145.808 770.766 144.231 768.821 144.231C766.876 144.231 765.299 145.808 765.299 147.753C765.299 149.698 766.876 151.275 768.821 151.275Z" fill="#7899D4"/>
<path d="M543.529 202.293H419.348C416.405 202.289 413.583 201.118 411.502 199.037C409.421 196.956 408.25 194.134 408.247 191.191V11.1016C408.25 8.1583 409.421 5.33648 411.502 3.25525C413.583 1.17401 416.405 0.00332168 419.348 0H543.529C546.472 0.00332168 549.294 1.17401 551.375 3.25525C553.456 5.33648 554.627 8.1583 554.63 11.1016V191.191C554.627 194.134 553.456 196.956 551.375 199.037C549.294 201.118 546.472 202.289 543.529 202.293Z" fill="#E5E5E5"/>
<path d="M543.747 195.209H419.13C418.222 195.208 417.353 194.847 416.711 194.206C416.069 193.564 415.709 192.695 415.708 191.787V10.5052C415.709 9.59791 416.069 8.72806 416.711 8.0865C417.353 7.44494 418.222 7.08404 419.13 7.08301H543.747C544.654 7.08404 545.524 7.44494 546.166 8.0865C546.807 8.72806 547.168 9.59791 547.169 10.5052V191.787C547.168 192.695 546.807 193.564 546.166 194.206C545.524 194.847 544.654 195.208 543.747 195.209Z" fill="white"/>
<path d="M480.966 4.34439C481.488 4.34439 481.911 3.92156 481.911 3.39998C481.911 2.87839 481.488 2.45557 480.966 2.45557C480.445 2.45557 480.022 2.87839 480.022 3.39998C480.022 3.92156 480.445 4.34439 480.966 4.34439Z" fill="white"/>
<path d="M533.087 62.6796H463.776V66.662H533.087V62.6796Z" fill="#E5E5E5"/>
<path d="M533.087 75.2905H463.776V79.2729H533.087V75.2905Z" fill="#E5E5E5"/>
<path d="M533.087 87.9016H463.776V91.884H533.087V87.9016Z" fill="#E5E5E5"/>
<path d="M454.072 65.1409H429.79V89.4229H454.072V65.1409Z" fill="#E5E5E5"/>
<path d="M458.136 139.613C463.464 139.613 467.784 135.293 467.784 129.965C467.784 124.636 463.464 120.317 458.136 120.317C452.807 120.317 448.488 124.636 448.488 129.965C448.488 135.293 452.807 139.613 458.136 139.613Z" fill="#7899D4"/>
<path d="M483.864 137.849C488.219 137.849 491.748 134.319 491.748 129.965C491.748 125.61 488.219 122.081 483.864 122.081C479.51 122.081 475.98 125.61 475.98 129.965C475.98 134.319 479.51 137.849 483.864 137.849Z" fill="#7899D4"/>
<path d="M509.593 134.761C512.242 134.761 514.389 132.614 514.389 129.965C514.389 127.316 512.242 125.168 509.593 125.168C506.944 125.168 504.796 127.316 504.796 129.965C504.796 132.614 506.944 134.761 509.593 134.761Z" fill="#7899D4"/>
<path d="M779.653 218.953H413.264C411.94 218.953 410.628 219.214 409.405 219.721C408.181 220.227 407.07 220.97 406.133 221.907C405.197 222.843 404.454 223.955 403.947 225.178C403.44 226.402 403.179 227.713 403.179 229.037V433.182C403.179 435.857 404.242 438.422 406.133 440.313C408.024 442.205 410.589 443.267 413.264 443.267H779.653C782.327 443.267 784.892 442.205 786.784 440.313C788.675 438.422 789.737 435.857 789.737 433.182V229.037C789.737 226.363 788.675 223.798 786.784 221.907C784.892 220.015 782.327 218.953 779.653 218.953Z" fill="#3F3D56"/>
<path d="M776.217 236.775H416.7V439.58H776.217V236.775Z" fill="white"/>
<path d="M596.151 231.244C598.187 231.244 599.838 229.593 599.838 227.557C599.838 225.52 598.187 223.869 596.151 223.869C594.114 223.869 592.464 225.52 592.464 227.557C592.464 229.593 594.114 231.244 596.151 231.244Z" fill="white"/>
<path d="M799.832 435.892H764.745V433.364C764.745 433.298 764.732 433.233 764.707 433.173C764.682 433.112 764.645 433.056 764.598 433.01C764.552 432.963 764.496 432.926 764.436 432.901C764.375 432.876 764.31 432.863 764.244 432.863H752.214C752.148 432.863 752.083 432.876 752.022 432.901C751.961 432.926 751.906 432.963 751.86 433.01C751.813 433.056 751.776 433.112 751.751 433.172C751.726 433.233 751.713 433.298 751.713 433.364V435.892H744.194V433.364C744.194 433.298 744.181 433.233 744.156 433.172C744.131 433.112 744.094 433.056 744.048 433.01C744.001 432.963 743.946 432.926 743.885 432.901C743.824 432.876 743.759 432.863 743.693 432.863H731.664C731.598 432.863 731.533 432.876 731.472 432.901C731.411 432.926 731.356 432.963 731.309 433.01C731.263 433.056 731.226 433.112 731.2 433.172C731.175 433.233 731.162 433.298 731.162 433.364V435.892H723.644V433.364C723.644 433.298 723.631 433.233 723.606 433.172C723.58 433.112 723.543 433.056 723.497 433.01C723.45 432.963 723.395 432.926 723.334 432.901C723.273 432.876 723.208 432.863 723.143 432.863H711.113C711.047 432.863 710.982 432.876 710.921 432.901C710.86 432.926 710.805 432.963 710.758 433.01C710.712 433.056 710.675 433.112 710.65 433.172C710.625 433.233 710.612 433.298 710.612 433.364V435.892H703.093V433.364C703.093 433.298 703.08 433.233 703.055 433.172C703.03 433.112 702.993 433.056 702.946 433.01C702.9 432.963 702.844 432.926 702.784 432.901C702.723 432.876 702.658 432.863 702.592 432.863H690.562C690.496 432.863 690.431 432.876 690.37 432.901C690.31 432.926 690.254 432.963 690.208 433.01C690.161 433.056 690.124 433.112 690.099 433.172C690.074 433.233 690.061 433.298 690.061 433.364V435.892H682.542V433.364C682.542 433.298 682.529 433.233 682.504 433.172C682.479 433.112 682.442 433.056 682.396 433.01C682.349 432.963 682.294 432.926 682.233 432.901C682.172 432.876 682.107 432.863 682.041 432.863H670.011C669.946 432.863 669.881 432.876 669.82 432.901C669.759 432.926 669.704 432.963 669.657 433.01C669.611 433.056 669.574 433.112 669.548 433.172C669.523 433.233 669.51 433.298 669.51 433.364V435.892H661.992V433.364C661.992 433.298 661.979 433.233 661.954 433.172C661.928 433.112 661.891 433.056 661.845 433.01C661.798 432.963 661.743 432.926 661.682 432.901C661.621 432.876 661.556 432.863 661.49 432.863H649.461C649.395 432.863 649.33 432.876 649.269 432.901C649.208 432.926 649.153 432.963 649.106 433.01C649.06 433.056 649.023 433.112 648.998 433.172C648.973 433.233 648.96 433.298 648.96 433.364V435.892H641.441V433.364C641.441 433.298 641.428 433.233 641.403 433.172C641.378 433.112 641.341 433.056 641.294 433.01C641.248 432.963 641.192 432.926 641.132 432.901C641.071 432.876 641.006 432.863 640.94 432.863H546.707C546.642 432.863 546.576 432.876 546.516 432.901C546.455 432.926 546.399 432.963 546.353 433.01C546.306 433.056 546.269 433.112 546.244 433.172C546.219 433.233 546.206 433.298 546.206 433.364V435.892H538.688V433.364C538.688 433.298 538.675 433.233 538.649 433.172C538.624 433.112 538.587 433.056 538.541 433.01C538.494 432.963 538.439 432.926 538.378 432.901C538.317 432.876 538.252 432.863 538.186 432.863H526.157C526.091 432.863 526.026 432.876 525.965 432.901C525.904 432.926 525.849 432.963 525.802 433.01C525.756 433.056 525.719 433.112 525.694 433.172C525.668 433.233 525.655 433.298 525.655 433.364V435.892H518.137V433.364C518.137 433.298 518.124 433.233 518.099 433.172C518.074 433.112 518.037 433.056 517.99 433.01C517.944 432.963 517.888 432.926 517.828 432.901C517.767 432.876 517.702 432.863 517.636 432.863H505.606C505.54 432.863 505.475 432.876 505.414 432.901C505.353 432.926 505.298 432.963 505.252 433.01C505.205 433.056 505.168 433.112 505.143 433.172C505.118 433.233 505.105 433.298 505.105 433.364V435.892H497.586V433.364C497.586 433.298 497.573 433.233 497.548 433.172C497.523 433.112 497.486 433.056 497.439 433.01C497.393 432.963 497.338 432.926 497.277 432.901C497.216 432.876 497.151 432.863 497.085 432.863H485.055C484.989 432.863 484.924 432.876 484.863 432.901C484.803 432.926 484.747 432.963 484.701 433.01C484.654 433.056 484.617 433.112 484.592 433.172C484.567 433.233 484.554 433.298 484.554 433.364V435.892H477.036V433.364C477.036 433.298 477.023 433.233 476.997 433.172C476.972 433.112 476.935 433.056 476.889 433.01C476.842 432.963 476.787 432.926 476.726 432.901C476.665 432.876 476.6 432.863 476.534 432.863H464.505C464.439 432.863 464.374 432.876 464.313 432.901C464.252 432.926 464.197 432.963 464.15 433.01C464.104 433.056 464.067 433.112 464.042 433.172C464.016 433.233 464.003 433.298 464.003 433.364V435.892H456.485V433.364C456.485 433.298 456.472 433.233 456.447 433.172C456.421 433.112 456.385 433.056 456.338 433.01C456.291 432.963 456.236 432.926 456.175 432.901C456.115 432.876 456.049 432.863 455.984 432.863H443.954C443.821 432.863 443.693 432.916 443.599 433.01C443.505 433.104 443.453 433.231 443.453 433.364V435.892H435.934V433.364C435.934 433.298 435.921 433.233 435.896 433.172C435.871 433.112 435.834 433.056 435.787 433.01C435.741 432.963 435.686 432.926 435.625 432.901C435.564 432.876 435.499 432.863 435.433 432.863H423.403C423.27 432.863 423.143 432.916 423.049 433.01C422.955 433.104 422.902 433.231 422.902 433.364V435.892H399.845C398.265 435.892 396.701 436.203 395.242 436.808C393.782 437.413 392.456 438.299 391.339 439.416C390.222 440.533 389.336 441.859 388.731 443.318C388.127 444.778 387.815 446.342 387.815 447.922V453.362C387.815 456.552 389.083 459.612 391.339 461.868C393.595 464.124 396.655 465.391 399.845 465.391H799.832C803.022 465.391 806.082 464.124 808.338 461.868C810.594 459.612 811.861 456.552 811.861 453.362V447.922C811.861 446.342 811.55 444.778 810.946 443.318C810.341 441.859 809.455 440.533 808.338 439.416C807.221 438.299 805.895 437.413 804.435 436.808C802.976 436.203 801.411 435.892 799.832 435.892Z" fill="#3F3D56"/>
<path d="M676.597 256.085H560.338V260.405H676.597V256.085Z" fill="#CBCBCB"/>
<path d="M676.597 269.765H560.338V274.085H676.597V269.765Z" fill="#CBCBCB"/>
<path d="M676.597 283.445H560.338V287.765H676.597V283.445Z" fill="#CBCBCB"/>
<path d="M549.811 258.755H523.471V285.095H549.811V258.755Z" fill="#CBCBCB"/>
<path d="M596.178 401.798C621.636 401.798 642.273 381.161 642.273 355.703C642.273 330.245 621.636 309.608 596.178 309.608C570.72 309.608 550.083 330.245 550.083 355.703C550.083 381.161 570.72 401.798 596.178 401.798Z" fill="#7899D4"/>
<path d="M588.694 362.58H579.029L596.133 327.821L613.327 362.548H603.654V376.999H588.694V362.58Z" fill="white"/>
<path d="M352.852 189.017C359.41 181.337 368.42 176.159 378.357 174.361L373.942 170.652L378.664 170.243L384.707 175.323L379.628 181.365L374.906 181.775L378.309 177.728C368.291 179.717 359.39 185.407 353.379 193.664C347.367 201.92 344.685 212.138 345.868 222.283C347.051 232.428 352.011 241.755 359.76 248.407C367.51 255.06 377.481 258.549 387.688 258.181L387.807 261.471C379.28 261.778 370.849 259.595 363.543 255.189C356.237 250.783 350.372 244.345 346.665 236.66C342.958 228.976 341.569 220.378 342.668 211.918C343.766 203.457 347.305 195.499 352.852 189.017Z" fill="#E5E5E5"/>
<path d="M849.972 219.153C849.553 230.795 844.526 241.794 835.998 249.731C827.47 257.667 816.138 261.89 804.495 261.471L804.614 258.181C814.821 258.549 824.792 255.06 832.542 248.407C840.291 241.755 845.251 232.428 846.434 222.283C847.617 212.138 844.935 201.92 838.923 193.664C832.912 185.407 824.011 179.717 813.993 177.728L817.396 181.775L812.674 181.365L807.595 175.323L813.638 170.243L818.36 170.652L813.945 174.361C824.33 176.252 833.687 181.82 840.303 190.045C846.919 198.271 850.352 208.604 849.972 219.153H849.972Z" fill="#E5E5E5"/>
<path d="M859.151 466H333.151C332.886 466 332.631 465.895 332.444 465.707C332.256 465.52 332.151 465.265 332.151 465C332.151 464.735 332.256 464.48 332.444 464.293C332.631 464.105 332.886 464 333.151 464H859.151C859.416 464 859.671 464.105 859.858 464.293C860.046 464.48 860.151 464.735 860.151 465C860.151 465.265 860.046 465.52 859.858 465.707C859.671 465.895 859.416 466 859.151 466Z" fill="#CBCBCB"/>
</g>
<defs>
<clipPath id="clip0">
<rect width="860.151" height="646" fill="white"/>
</clipPath>
</defs>
</svg>
