<svg width="563" height="360" viewBox="0 0 563 360" fill="none" xmlns="http://www.w3.org/2000/svg">
<g opacity="0.5">
<path d="M27.5784 331.884C27.814 341.019 29.2872 350.074 31.9546 358.782C32.0138 358.985 32.0794 359.184 32.1433 359.386H48.4732C48.4561 359.204 48.4383 359.002 48.4212 358.782C47.3324 345.779 53.5526 267.583 61.0585 254.049C60.4009 255.147 26.3122 290.567 27.5784 331.884Z" fill="#F1F1F1"/>
<path d="M28.8038 358.782C28.9404 358.985 29.0824 359.187 29.2278 359.386H41.479C41.3862 359.214 41.2785 359.012 41.1537 358.782C39.13 354.988 33.1399 343.644 27.5796 331.884C21.6066 319.246 16.1221 306.128 16.584 301.381C16.4409 302.451 12.3059 335.093 28.8038 358.782Z" fill="#F1F1F1"/>
<path d="M385.165 74.0746C385.632 75.2755 386.347 76.3553 387.26 77.238C388.172 78.1207 389.26 78.7848 390.447 79.1835C391.633 79.5823 392.889 79.706 394.126 79.5459C395.364 79.3857 396.552 78.9458 397.608 78.2569L421.252 97.9583L422.715 81.6672L400.039 65.456C398.807 63.6899 396.995 62.4545 394.945 61.9839C392.895 61.5133 390.75 61.8401 388.917 62.9024C387.083 63.9648 385.689 65.6889 384.997 67.748C384.306 69.8071 384.365 72.0581 385.165 74.0746Z" fill="#9F616A"/>
<path d="M421.78 80.1375L412.955 73.6605L402.946 85.6739L414.589 92.8419L421.78 80.1375Z" fill="#7899D4"/>
<path d="M419.847 75.7448L449.586 87.6316L478.215 68.1585C481.173 66.146 484.736 65.3207 488.237 65.8369C491.739 66.353 494.94 68.1753 497.242 70.9635C499.545 73.7516 500.792 77.3151 500.751 80.9885C500.71 84.6619 499.383 88.1942 497.018 90.9259L496.762 91.2213L452.731 115.744L404.636 92.9202L419.847 75.7448Z" fill="#3F3D56"/>
<path d="M411.463 358.157H101.577L112.813 130.239H161.307L206.024 162.799H422.7L411.463 358.157Z" fill="#E5E5E5"/>
<path d="M335.605 288.653L156.495 212.028C155.869 211.759 155.371 211.244 155.111 210.594C154.85 209.944 154.848 209.214 155.105 208.563L236.264 3.84716C236.522 3.19669 237.019 2.67939 237.644 2.40873C238.27 2.13807 238.973 2.13616 239.6 2.40342L418.71 79.0282C419.336 79.297 419.834 79.8128 420.095 80.4625C420.355 81.1121 420.357 81.8427 420.1 82.4937L338.942 287.209C338.683 287.86 338.186 288.377 337.561 288.648C336.935 288.918 336.232 288.92 335.605 288.653Z" fill="white"/>
<path d="M335.605 288.653L156.495 212.028C155.869 211.759 155.371 211.244 155.111 210.594C154.85 209.944 154.848 209.214 155.105 208.563L236.264 3.84716C236.522 3.19669 237.019 2.67939 237.644 2.40873C238.27 2.13807 238.973 2.13616 239.6 2.40342L418.71 79.0282C419.336 79.297 419.834 79.8128 420.095 80.4625C420.355 81.1121 420.357 81.8427 420.1 82.4937L338.942 287.209C338.683 287.86 338.186 288.377 337.561 288.648C336.935 288.918 336.232 288.92 335.605 288.653ZM239.211 3.38527C238.834 3.22489 238.413 3.22603 238.037 3.38842C237.662 3.55082 237.364 3.86122 237.209 4.25152L156.051 208.967C155.896 209.358 155.897 209.796 156.054 210.186C156.21 210.576 156.509 210.885 156.885 211.046L335.995 287.671C336.371 287.832 336.793 287.83 337.168 287.668C337.543 287.506 337.841 287.195 337.996 286.805L419.155 82.0894C419.309 81.6987 419.308 81.2604 419.152 80.8706C418.995 80.4808 418.696 80.1713 418.321 80.0101L239.211 3.38527Z" fill="#3F3D56"/>
<path d="M289.798 103.741L245.375 84.736C244.749 84.4672 244.251 83.9514 243.99 83.3017C243.73 82.6521 243.728 81.9215 243.985 81.2705L262.28 35.1236C262.539 34.4731 263.035 33.9558 263.66 33.6851C264.286 33.4145 264.989 33.4126 265.616 33.6798L310.039 52.6844C310.665 52.9531 311.163 53.4689 311.424 54.1186C311.684 54.7683 311.686 55.4988 311.429 56.1499L293.134 102.297C292.875 102.947 292.379 103.465 291.753 103.735C291.128 104.006 290.425 104.008 289.798 103.741ZM265.227 34.6617C264.851 34.5013 264.429 34.5024 264.053 34.6648C263.678 34.8272 263.38 35.1376 263.225 35.5279L244.93 81.6748C244.776 82.0655 244.777 82.5038 244.933 82.8936C245.09 83.2834 245.388 83.5929 245.764 83.7541L290.187 102.759C290.563 102.919 290.985 102.918 291.361 102.756C291.736 102.593 292.034 102.283 292.189 101.892L310.484 55.7455C310.638 55.3549 310.637 54.9166 310.481 54.5268C310.324 54.137 310.025 53.8275 309.65 53.6662L265.227 34.6617Z" fill="#F2F2F2"/>
<path d="M274.8 103.927L230.377 84.9228C229.813 84.681 229.365 84.2167 229.131 83.632C228.896 83.0473 228.895 82.3898 229.126 81.8039L247.421 35.657C247.654 35.0715 248.101 34.6059 248.663 34.3623C249.226 34.1188 249.859 34.117 250.423 34.3576L294.846 53.3622C295.41 53.604 295.858 54.0683 296.093 54.653C296.327 55.2377 296.329 55.8952 296.097 56.4811L277.803 102.628C277.57 103.213 277.123 103.679 276.56 103.923C275.997 104.166 275.364 104.168 274.8 103.927Z" fill="#7899D4"/>
<path d="M360.365 166.945L221.424 107.505C221.145 107.386 220.891 107.21 220.677 106.989C220.463 106.768 220.293 106.505 220.177 106.215C220.061 105.925 220.001 105.615 220 105.301C219.999 104.987 220.058 104.677 220.173 104.386C220.288 104.096 220.457 103.833 220.67 103.61C220.883 103.388 221.137 103.211 221.415 103.091C221.694 102.97 221.993 102.908 222.295 102.907C222.597 102.906 222.896 102.968 223.176 103.087L362.116 162.527C362.68 162.768 363.129 163.232 363.363 163.817C363.598 164.402 363.599 165.06 363.367 165.646C363.135 166.232 362.688 166.698 362.125 166.941C361.562 167.185 360.929 167.186 360.365 166.945V166.945Z" fill="#CCCCCC"/>
<path d="M320.777 167.809L215.391 122.724C215.111 122.605 214.857 122.429 214.643 122.208C214.429 121.986 214.26 121.723 214.143 121.434C214.027 121.144 213.967 120.833 213.967 120.52C213.966 120.206 214.025 119.895 214.14 119.605C214.255 119.315 214.424 119.051 214.637 118.829C214.85 118.607 215.103 118.43 215.382 118.309C215.661 118.189 215.96 118.126 216.262 118.126C216.564 118.125 216.863 118.186 217.142 118.306L322.529 163.391C323.093 163.632 323.542 164.096 323.776 164.681C324.011 165.266 324.012 165.924 323.78 166.51C323.548 167.096 323.101 167.562 322.538 167.806C321.975 168.049 321.341 168.051 320.777 167.809Z" fill="#CCCCCC"/>
<path d="M382.079 110.778L320.643 84.4947C320.364 84.3752 320.11 84.1998 319.896 83.9784C319.682 83.757 319.512 83.494 319.396 83.2043C319.279 82.9147 319.219 82.6042 319.219 82.2904C319.218 81.9767 319.277 81.6659 319.392 81.3758C319.507 81.0857 319.676 80.8219 319.889 80.5996C320.102 80.3773 320.355 80.2008 320.634 80.0801C320.913 79.9595 321.212 79.8971 321.514 79.8964C321.816 79.8958 322.115 79.957 322.394 80.0764L383.831 106.359C384.395 106.601 384.843 107.065 385.078 107.65C385.312 108.235 385.314 108.892 385.081 109.478C384.849 110.064 384.402 110.53 383.839 110.774C383.276 111.018 382.643 111.019 382.079 110.778Z" fill="#CCCCCC"/>
<path d="M360.713 119.437L314.61 99.7134C314.046 99.4721 313.597 99.0079 313.362 98.423C313.128 97.8381 313.127 97.1803 313.359 96.5944C313.591 96.0085 314.038 95.5425 314.601 95.2988C315.164 95.0551 315.797 95.0538 316.361 95.2951L362.465 115.019C363.029 115.26 363.478 115.724 363.712 116.309C363.947 116.894 363.948 117.552 363.716 118.138C363.484 118.723 363.037 119.19 362.474 119.433C361.911 119.677 361.277 119.678 360.713 119.437V119.437Z" fill="#CCCCCC"/>
<path d="M348.298 197.383L209.357 137.943C209.078 137.823 208.824 137.648 208.61 137.426C208.396 137.205 208.226 136.942 208.11 136.652C207.994 136.363 207.934 136.052 207.933 135.738C207.932 135.425 207.991 135.114 208.106 134.824C208.221 134.534 208.39 134.27 208.603 134.048C208.817 133.825 209.07 133.649 209.349 133.528C209.627 133.407 209.926 133.345 210.228 133.344C210.53 133.344 210.83 133.405 211.109 133.524L350.049 192.964C350.613 193.206 351.062 193.67 351.296 194.255C351.531 194.839 351.532 195.497 351.3 196.083C351.068 196.669 350.621 197.135 350.058 197.379C349.495 197.622 348.862 197.624 348.298 197.382V197.383Z" fill="#CCCCCC"/>
<path d="M308.711 198.247L203.324 153.161C203.045 153.042 202.791 152.866 202.577 152.645C202.363 152.424 202.193 152.161 202.077 151.871C201.961 151.581 201.901 151.271 201.9 150.957C201.899 150.643 201.958 150.333 202.073 150.042C202.188 149.752 202.357 149.489 202.57 149.266C202.783 149.044 203.037 148.867 203.315 148.747C203.594 148.626 203.893 148.564 204.195 148.563C204.497 148.562 204.796 148.624 205.076 148.743L310.462 193.828C310.742 193.948 310.995 194.123 311.209 194.345C311.423 194.566 311.593 194.829 311.71 195.119C311.826 195.408 311.886 195.719 311.886 196.033C311.887 196.346 311.828 196.657 311.713 196.947C311.598 197.237 311.429 197.501 311.216 197.723C311.003 197.946 310.75 198.122 310.471 198.243C310.192 198.364 309.893 198.426 309.591 198.427C309.289 198.427 308.99 198.366 308.711 198.247Z" fill="#CCCCCC"/>
<path d="M336.231 227.82L197.291 168.38C196.727 168.139 196.278 167.675 196.043 167.09C195.809 166.505 195.807 165.847 196.04 165.261C196.272 164.675 196.719 164.209 197.282 163.965C197.845 163.722 198.478 163.72 199.042 163.962L337.983 223.402C338.547 223.643 338.995 224.107 339.23 224.692C339.464 225.277 339.466 225.935 339.233 226.52C339.001 227.106 338.554 227.572 337.991 227.816C337.428 228.06 336.795 228.061 336.231 227.82Z" fill="#CCCCCC"/>
<path d="M330.198 243.038L191.257 183.599C190.693 183.357 190.245 182.893 190.01 182.308C189.776 181.723 189.774 181.066 190.007 180.48C190.239 179.894 190.686 179.428 191.249 179.184C191.812 178.94 192.445 178.939 193.009 179.18L331.949 238.62C332.229 238.74 332.482 238.915 332.697 239.137C332.911 239.358 333.08 239.621 333.197 239.911C333.313 240.2 333.373 240.511 333.373 240.824C333.374 241.138 333.315 241.449 333.2 241.739C333.085 242.029 332.916 242.293 332.703 242.515C332.49 242.738 332.237 242.914 331.958 243.035C331.679 243.155 331.38 243.218 331.078 243.218C330.776 243.219 330.477 243.158 330.198 243.038Z" fill="#CCCCCC"/>
<path d="M262.416 241.908C265.197 242.061 267.985 241.972 270.751 241.644C273.243 241.341 275.838 240.925 278.021 239.564C278.966 239.005 279.77 238.221 280.368 237.278C280.966 236.335 281.342 235.259 281.464 234.136C281.56 233.069 281.327 231.997 280.798 231.076C280.269 230.156 279.472 229.433 278.522 229.015C277.558 228.593 276.502 228.45 275.466 228.601C274.43 228.752 273.452 229.191 272.637 229.871C271.766 230.657 271.077 231.637 270.621 232.738C270.165 233.84 269.955 235.033 270.005 236.231C270.12 241.148 273.865 246.004 278.024 248.05C282.708 250.354 289.105 248.396 290.305 242.722C290.555 241.542 289.007 241.132 288.361 241.891C287.477 242.902 286.999 244.225 287.024 245.59C287.049 246.956 287.574 248.259 288.493 249.236C289.412 250.212 290.655 250.787 291.968 250.843C293.281 250.899 294.566 250.432 295.559 249.538L293.818 248.793C294.324 250.996 295.379 253.021 296.878 254.666C298.377 256.31 300.266 257.516 302.356 258.161C303.387 258.482 304.456 258.651 305.533 258.664C306.841 258.667 308.185 259.35 309.436 259.773L318.451 262.824C319.777 263.273 320.618 261.182 319.281 260.729L311.117 257.966C309.756 257.505 308.399 257.032 307.034 256.584C306.059 256.264 304.991 256.437 303.973 256.249C302.069 255.875 300.306 254.946 298.89 253.57C297.475 252.195 296.465 250.43 295.978 248.481C295.948 248.287 295.871 248.104 295.754 247.95C295.637 247.796 295.483 247.676 295.309 247.601C295.134 247.526 294.943 247.499 294.756 247.523C294.568 247.547 294.389 247.62 294.237 247.736C293.667 248.3 292.905 248.607 292.118 248.59C291.33 248.573 290.581 248.234 290.034 247.646C289.486 247.059 289.184 246.27 289.194 245.452C289.203 244.634 289.523 243.853 290.084 243.279L288.14 242.447C287.366 246.107 283.068 247.481 279.971 246.423C276.507 245.239 273.529 241.795 272.496 238.187C272.22 237.321 272.118 236.404 272.199 235.495C272.279 234.585 272.538 233.703 272.961 232.903C273.338 232.173 273.926 231.584 274.643 231.22C275.359 230.855 276.167 230.733 276.953 230.871C277.656 230.974 278.292 231.357 278.728 231.938C279.164 232.519 279.365 233.254 279.29 233.986C279.174 234.81 278.865 235.592 278.39 236.264C277.916 236.935 277.289 237.474 276.566 237.834C274.617 238.921 272.282 239.192 270.117 239.439C267.648 239.718 265.161 239.791 262.681 239.659C261.289 239.586 261.01 241.834 262.416 241.908L262.416 241.908Z" fill="#7899D4"/>
<path d="M411.463 178.157V358.157H101.577V145.597H150.07L194.785 178.157H411.463Z" fill="white"/>
<path d="M247.058 324.369H120.501V334.812H247.058V324.369Z" fill="#7899D4"/>
<path d="M183.779 304.096H120.501V314.539H183.779V304.096Z" fill="#7899D4"/>
<path d="M412.054 358.771H100.985V144.983H150.257L194.974 177.543H412.054V358.771ZM102.168 357.543H410.872V178.771H194.601L149.884 146.212H102.168V357.543Z" fill="#3F3D56"/>
<path d="M537.656 337.046L527.17 340.938L507.726 300.777L523.202 295.032L537.656 337.046Z" fill="#9F616A"/>
<path d="M510.153 359.163L510 358.719C508.757 355.093 508.949 351.103 510.535 347.624C512.12 344.146 514.969 341.462 518.457 340.163L539.107 332.496L543.963 346.612L510.153 359.163Z" fill="#2F2E41"/>
<path d="M469.471 347.819H458.336L453.039 303.202L469.473 303.203L469.471 347.819Z" fill="#9F616A"/>
<path d="M472.311 359.032L436.406 359.031V358.559C436.406 356.652 436.768 354.765 437.47 353.003C438.172 351.242 439.202 349.642 440.5 348.294C441.797 346.946 443.338 345.876 445.033 345.147C446.729 344.417 448.546 344.042 450.381 344.042H450.382L472.311 344.043L472.311 359.032Z" fill="#2F2E41"/>
<path d="M494.848 62.7767L490.005 52.8364C490.005 52.8364 471.965 57.5316 470.325 68.3931L494.848 62.7767Z" fill="#7899D4"/>
<path d="M514.83 176.436L501.66 252.778L536.628 317.019L515.738 325.51L480.316 263.239L475.775 246.255L473.049 334.945L454.21 334.351L445.571 251.536L459.426 174.549L514.83 176.436Z" fill="#2F2E41"/>
<path d="M512.104 141.945L511.649 97.1776C511.649 78.2046 499.628 64.2204 497.962 62.9268C497.178 60.3275 495.772 58.5309 493.782 57.5906C489.775 55.7041 484.875 57.9679 484.668 58.0697L469.966 63.7952L469.897 64.0048C469.741 64.4839 454.908 115.049 451.183 127.739C450.653 129.56 450.347 130.602 450.347 130.602C450.347 130.602 450.405 133.537 450.508 138.1C450.837 153.791 451.615 188.743 451.927 190.21C451.927 190.21 479.081 194.486 489.833 194.486C509.176 194.486 521.461 190.641 521.738 190.575L522.182 190.48L512.104 141.945Z" fill="#3F3D56"/>
<path d="M484.498 47.1765C494.13 41.707 497.669 29.1621 492.404 19.1566C487.139 9.15113 475.063 5.47395 465.431 10.9434C455.799 16.4128 452.259 28.9578 457.525 38.9632C462.79 48.9687 474.866 52.6459 484.498 47.1765Z" fill="#9F616A"/>
<path opacity="0.2" d="M477.167 132.47L450.508 138.1C450.405 133.537 450.347 130.602 450.347 130.602C450.347 130.602 450.653 129.56 451.183 127.739L477.167 132.47Z" fill="black"/>
<path d="M398.221 126.569C399.168 127.413 400.281 128.03 401.482 128.378C402.683 128.726 403.943 128.796 405.173 128.583C406.403 128.371 407.573 127.88 408.601 127.147C409.629 126.414 410.49 125.456 411.123 124.339L440.839 130.541L434.928 115.375L407.615 111.811C405.739 110.831 403.583 110.6 401.554 111.161C399.526 111.722 397.766 113.037 396.608 114.856C395.45 116.675 394.975 118.873 395.272 121.031C395.569 123.19 396.619 125.161 398.221 126.569Z" fill="#9F616A"/>
<path d="M433.42 114.463L422.716 112.927L419.146 128.376L432.658 129.18L433.42 114.463Z" fill="#7899D4"/>
<path d="M429.759 111.486L461.429 107.836L478.232 76.8687C479.968 73.6683 482.766 71.2338 486.104 70.0196C489.442 68.8054 493.091 68.8946 496.37 70.2706C499.649 71.6466 502.334 74.2152 503.923 77.497C505.512 80.7787 505.898 84.5492 505.007 88.1044L504.91 88.489L476.666 131.298L423.854 134.004L429.759 111.486Z" fill="#3F3D56"/>
<path d="M491.894 46.986L475.397 47.6011C474.392 47.6385 471.662 36.3653 471.305 34.0266C471.023 32.5041 470.217 31.1404 469.037 30.1902C467.858 29.24 466.386 28.7684 464.896 28.8633C463.661 28.9844 460.547 26.5878 457.334 23.75C451.233 18.3624 451.551 8.2436 458.252 3.69103C458.435 3.5666 458.615 3.45299 458.791 3.35019C463.019 0.892164 467.964 0.0667292 472.809 0.00378446C477.2 -0.0532749 481.716 0.520908 485.585 2.68015C492.521 6.5512 496.212 15.0106 496.536 23.1828C496.861 31.355 494.339 39.346 491.477 46.9658" fill="#2F2E41"/>
<path d="M562.409 360H0.591387C0.434541 360 0.284119 359.935 0.173213 359.82C0.0623062 359.705 0 359.549 0 359.386C0 359.223 0.0623062 359.066 0.173213 358.951C0.284119 358.836 0.434541 358.771 0.591387 358.771H562.409C562.565 358.771 562.716 358.836 562.827 358.951C562.938 359.066 563 359.223 563 359.386C563 359.549 562.938 359.705 562.827 359.82C562.716 359.935 562.565 360 562.409 360Z" fill="#CBCBCB"/>
</g>
</svg>
